<?xml version="1.0" encoding="utf-8"?>
<!-- Generator: Adobe Illustrator 24.0.2, SVG Export Plug-In . SVG Version: 6.00 Build 0)  -->
<svg version="1.1" id="Layer_1" xmlns="http://www.w3.org/2000/svg" xmlns:xlink="http://www.w3.org/1999/xlink" x="0px" y="0px"
	 viewBox="0 0 231.4 95.5" style="enable-background:new 0 0 231.4 95.5;" xml:space="preserve">
<style type="text/css">
	.st0{fill:#3F6EB6;}
	.st1{fill:none;stroke:#ED1941;stroke-width:11.5991;}
	.st2{fill:#222222;}
</style>
<g>
	<g>
		<g>
			<path class="st0" d="M0.1,56.5V17h9.2v16.4L16.3,17h9.4l-8.6,17.3l8.8,22.2h-9.7l-4.9-14.3l-2,3.8v10.5H0.1z"/>
			<path class="st0" d="M48.9,56.5H28.5V17h9.2v31.6h11.1V56.5z"/>
			<path class="st0" d="M53,56.5V17h21.5v7.7H62.1v7.3h11.4v7.9H62.1v8.6h12.3v8H53z"/>
			<path class="st0" d="M77.3,56.5L86,17h11l8.5,39.5h-9.2l-1.2-7.6h-7.3l-1.2,7.6H77.3z M88.8,41.8h5.3l-2.6-17.3L88.8,41.8z"/>
			<path class="st0" d="M109.1,56.5V17h9.6l7.7,24.4c-0.3-4.1-0.5-7.7-0.7-10.6c-0.1-3-0.2-5.5-0.2-7.5V17h8.2v39.5h-9.7l-7.7-25.1
				c0.3,3.3,0.6,6.4,0.8,9.5c0.2,3.1,0.3,6.1,0.3,8.9v6.7H109.1z"/>
			<path class="st0" d="M139.5,61.4h-4.4L147.7,16h4.4L139.5,61.4z"/>
			<path class="st0" d="M154.3,66.5V26.8h7.6v3.4c0.8-1.3,1.7-2.3,2.9-3c1.1-0.7,2.4-1,3.8-1c1.2,0,2.2,0.2,3.2,0.6
				c1,0.4,1.8,1,2.4,1.7c0.7,0.9,1.3,2.2,1.6,3.7c0.3,1.5,0.4,4.5,0.4,8.7c0,6.8-0.6,11.2-1.7,13.3c-1.1,2.1-3.1,3.2-6,3.2
				c-1.2,0-2.4-0.3-3.3-0.9c-1-0.6-1.8-1.4-2.6-2.6v12.6H154.3z M165,50.3c1.1,0,1.8-0.6,2.2-1.8c0.4-1.2,0.6-4.1,0.6-8.5
				c0-2.7-0.2-4.5-0.6-5.5c-0.4-1-1.1-1.5-2-1.5c-1.1,0-1.9,0.6-2.3,1.7c-0.4,1.1-0.6,4.2-0.6,9.1c0,2.5,0.2,4.2,0.6,5.2
				C163.4,49.8,164,50.3,165,50.3z"/>
			<path class="st0" d="M195.3,56.5l-0.5-2.7c-1,1.1-2.2,1.9-3.4,2.5c-1.2,0.6-2.6,0.8-4,0.8c-2.3,0-4.2-0.8-5.5-2.3
				c-1.4-1.5-2-3.5-2-6.1c0-2.2,0.6-4.1,1.7-5.5c1.2-1.5,3.1-2.7,5.7-3.8c0.6-0.2,1.5-0.6,2.6-0.9c3.1-1.1,4.6-2.4,4.6-3.8
				c0-0.9-0.2-1.5-0.7-2c-0.4-0.5-1.1-0.7-1.9-0.7c-1,0-1.8,0.3-2.2,0.9c-0.5,0.6-0.7,1.5-0.7,2.8v0.2h-8.3c0-3.4,0.9-5.8,2.8-7.5
				c1.9-1.6,4.7-2.5,8.5-2.5c1.7,0,3.2,0.2,4.6,0.5c1.3,0.3,2.5,0.8,3.4,1.4c1.2,0.8,2,1.7,2.5,2.8c0.5,1.1,0.7,3.1,0.7,6.1v0.9
				v10.6c0,2.3,0.1,4.1,0.2,5.3c0.2,1.2,0.4,2.2,0.8,3H195.3z M194.3,42.2c-2.1,0.6-3.7,1.3-4.7,2.2c-1,0.9-1.5,2-1.5,3.3
				c0,0.9,0.2,1.7,0.7,2.3c0.5,0.6,1.1,0.8,2,0.8c1.2,0,2.1-0.4,2.6-1.2c0.5-0.8,0.8-2.2,0.8-4.1V42.2z"/>
			<path class="st0" d="M208.4,56.5V17h8.1v19.6l6.5-9.7h8.3l-8.7,11.3l8.8,18.4h-8.3l-5.3-12.1l-1.4,1.9v10.2H208.4z"/>
		</g>
		<g>
			<path class="st0" d="M225.1,24.5v-3.2h-0.7v-0.8h2.4v0.8H226v3.2H225.1z"/>
			<path class="st0" d="M227.1,24.5v-3.9h1.3l0.3,1.7c0,0,0,0.1,0,0.3c0,0.2,0.1,0.4,0.1,0.6c0-0.2,0-0.3,0.1-0.6
				c0-0.2,0.1-0.3,0.1-0.4l0.3-1.7h1.3v3.9h-0.9l0.1-3l-0.6,3h-0.7l-0.6-3l0.1,3H227.1z"/>
		</g>
		<line class="st1" x1="0" y1="7" x2="231.5" y2="7"/>
		<line class="st1" x1="166.8" y1="66.4" x2="231.5" y2="66.4"/>
		<line class="st1" x1="0" y1="66.4" x2="149.8" y2="66.4"/>
	</g>
	<g>
		<path class="st2" d="M0,86.6V74.1h2.9c1.1,0,1.8,0,2.4,0.1c0.5,0.1,0.9,0.2,1.3,0.5c0.5,0.3,0.8,0.7,1.1,1.3
			c0.2,0.6,0.4,1.2,0.4,2c0,1.3-0.3,2.2-1,2.9c-0.7,0.7-1.6,1-2.9,1h-1v4.8H0z M2.9,79.4c0,0,0.1,0,0.2,0c0.1,0,0.1,0,0.2,0
			c0.6,0,1-0.1,1.3-0.4C4.9,78.8,5,78.3,5,77.7c0-0.5-0.1-0.9-0.4-1.1c-0.3-0.2-0.7-0.3-1.4-0.3H2.9V79.4z"/>
		<path class="st2" d="M8.7,81.9c0-1.8,0.3-3.1,0.8-3.8c0.5-0.7,1.4-1.1,2.7-1.1c1.3,0,2.2,0.4,2.7,1.1c0.5,0.7,0.8,2,0.8,3.9
			c0,1.8-0.3,3.1-0.8,3.8c-0.5,0.7-1.4,1.1-2.7,1.1c-1.3,0-2.2-0.4-2.7-1.1C8.9,85,8.7,83.7,8.7,81.9z M11.3,81.9
			c0,1.3,0.1,2.1,0.2,2.5c0.1,0.3,0.3,0.5,0.7,0.5c0.3,0,0.5-0.2,0.7-0.5c0.1-0.3,0.2-1.2,0.2-2.5s-0.1-2.2-0.2-2.5
			c-0.1-0.3-0.3-0.5-0.7-0.5c-0.3,0-0.5,0.2-0.7,0.5C11.4,79.7,11.3,80.5,11.3,81.9z"/>
		<path class="st2" d="M16.8,86.6v-9.4h2.4v1.3c0.3-0.5,0.6-0.8,0.9-1.1c0.3-0.2,0.7-0.4,1.2-0.4v3c-0.1,0-0.3-0.1-0.4-0.1
			c-0.1,0-0.3,0-0.4,0c-0.4,0-0.7,0.1-0.9,0.4c-0.2,0.3-0.2,0.9-0.2,1.7v4.5H16.8z"/>
		<path class="st2" d="M26.8,86.5c-0.3,0.1-0.6,0.1-0.8,0.1c-0.2,0-0.4,0-0.6,0c-0.5,0-1-0.1-1.3-0.3c-0.4-0.2-0.6-0.4-0.8-0.7
			c-0.1-0.2-0.2-0.5-0.2-0.8c0-0.3-0.1-0.8-0.1-1.5v-1.2v-3.2h-1v-1.9h1v-2.6h2.6v2.6h1.3v1.9h-1.3v3.8c0,0.8,0.1,1.3,0.2,1.5
			c0.1,0.2,0.3,0.3,0.7,0.3c0.1,0,0.2,0,0.3,0c0,0,0.1,0,0.1,0V86.5z"/>
		<path class="st2" d="M32.5,86.6l-0.2-0.9c-0.3,0.3-0.7,0.6-1.1,0.8c-0.4,0.2-0.8,0.3-1.3,0.3c-0.7,0-1.3-0.2-1.8-0.7
			c-0.4-0.5-0.6-1.1-0.6-1.9c0-0.7,0.2-1.3,0.5-1.8c0.4-0.5,1-0.9,1.8-1.2c0.2-0.1,0.5-0.2,0.8-0.3c1-0.4,1.5-0.8,1.5-1.2
			c0-0.3-0.1-0.5-0.2-0.6c-0.1-0.1-0.3-0.2-0.6-0.2c-0.3,0-0.6,0.1-0.7,0.3c-0.2,0.2-0.2,0.5-0.2,0.9V80h-2.6c0-1.1,0.3-1.9,0.9-2.4
			c0.6-0.5,1.5-0.8,2.7-0.8c0.5,0,1,0.1,1.4,0.2c0.4,0.1,0.8,0.2,1.1,0.4c0.4,0.2,0.6,0.5,0.8,0.9c0.1,0.4,0.2,1,0.2,1.9v0.3v3.3
			c0,0.7,0,1.3,0.1,1.7c0.1,0.4,0.1,0.7,0.3,0.9H32.5z M32.2,82c-0.7,0.2-1.2,0.4-1.5,0.7c-0.3,0.3-0.5,0.6-0.5,1.1
			c0,0.3,0.1,0.5,0.2,0.7c0.2,0.2,0.4,0.3,0.6,0.3c0.4,0,0.7-0.1,0.8-0.4c0.2-0.3,0.3-0.7,0.3-1.3V82z"/>
		<path class="st2" d="M36.3,74.1h2.6v4c0.2-0.4,0.5-0.6,0.8-0.8c0.3-0.2,0.6-0.3,1-0.3c0.9,0,1.6,0.3,1.9,1
			c0.4,0.7,0.5,2.1,0.5,4.2c0,1,0,1.7-0.1,2.3c-0.1,0.5-0.1,0.9-0.3,1.2c-0.2,0.4-0.5,0.7-0.8,1c-0.3,0.2-0.8,0.3-1.3,0.3
			c-0.4,0-0.8-0.1-1.2-0.3c-0.4-0.2-0.7-0.5-0.9-1v1h-2.4V74.1z M39.7,79.2c-0.3,0-0.5,0.2-0.7,0.5c-0.1,0.3-0.2,0.8-0.2,1.6
			c0,1.5,0.1,2.5,0.2,2.9c0.1,0.4,0.4,0.5,0.7,0.5c0.3,0,0.5-0.1,0.6-0.4c0.1-0.3,0.2-0.9,0.2-1.9v-0.3c0-1.3-0.1-2.1-0.2-2.5
			C40.3,79.3,40.1,79.2,39.7,79.2z"/>
		<path class="st2" d="M47.1,86.6h-2.6V74.1h2.6V86.6z"/>
		<path class="st2" d="M52.8,83.3h2.5v0.2c0,1.1-0.3,1.9-0.9,2.5c-0.6,0.6-1.4,0.8-2.6,0.8c-0.6,0-1.1-0.1-1.6-0.2
			c-0.5-0.2-0.8-0.4-1.1-0.7c-0.3-0.3-0.5-0.8-0.6-1.3c-0.1-0.5-0.2-1.4-0.2-2.6c0-1.3,0.1-2.3,0.2-2.8c0.1-0.5,0.3-1,0.7-1.3
			c0.3-0.3,0.7-0.6,1.1-0.7c0.5-0.2,1-0.2,1.6-0.2c0.6,0,1.2,0.1,1.6,0.3c0.4,0.2,0.8,0.4,1.1,0.8c0.2,0.3,0.4,0.6,0.5,1
			c0.1,0.4,0.2,1.1,0.2,2.1v1.1H51c0,0,0,0.1,0,0.1c0,0.4,0,0.7,0,0.8c0,0.7,0.1,1.1,0.2,1.4c0.1,0.3,0.4,0.4,0.7,0.4
			c0.3,0,0.5-0.1,0.7-0.3c0.2-0.2,0.2-0.5,0.2-0.9C52.8,83.6,52.8,83.5,52.8,83.3C52.8,83.3,52.8,83.3,52.8,83.3z M51.1,80.6h1.8
			c0,0,0,0,0,0c0-0.2,0-0.4,0-0.5c0-0.5-0.1-0.8-0.2-1c-0.1-0.2-0.4-0.3-0.7-0.3c-0.3,0-0.5,0.1-0.7,0.3c-0.1,0.2-0.2,0.6-0.2,1.1
			c0,0.1,0,0.2,0,0.3C51.1,80.5,51.1,80.5,51.1,80.6z"/>
		<path class="st2" d="M61.1,86.6V74.1h4.1l1.1,5.3c0,0,0.1,0.4,0.1,1c0.1,0.6,0.2,1.3,0.3,1.9c0.1-0.5,0.2-1.1,0.3-1.8
			c0.1-0.7,0.2-1.1,0.2-1.2l1.1-5.3h4.1v12.5h-2.8l0.3-9.7l-2,9.7h-2.2l-2-9.7l0.3,9.7H61.1z"/>
		<path class="st2" d="M78.4,86.6l-0.2-0.9c-0.3,0.3-0.7,0.6-1.1,0.8c-0.4,0.2-0.8,0.3-1.3,0.3c-0.7,0-1.3-0.2-1.8-0.7
			c-0.4-0.5-0.6-1.1-0.6-1.9c0-0.7,0.2-1.3,0.5-1.8c0.4-0.5,1-0.9,1.8-1.2c0.2-0.1,0.5-0.2,0.8-0.3c1-0.4,1.5-0.8,1.5-1.2
			c0-0.3-0.1-0.5-0.2-0.6c-0.1-0.1-0.3-0.2-0.6-0.2c-0.3,0-0.6,0.1-0.7,0.3c-0.2,0.2-0.2,0.5-0.2,0.9V80h-2.6c0-1.1,0.3-1.9,0.9-2.4
			c0.6-0.5,1.5-0.8,2.7-0.8c0.5,0,1,0.1,1.4,0.2c0.4,0.1,0.8,0.2,1.1,0.4c0.4,0.2,0.6,0.5,0.8,0.9c0.1,0.4,0.2,1,0.2,1.9v0.3v3.3
			c0,0.7,0,1.3,0.1,1.7c0.1,0.4,0.1,0.7,0.3,0.9H78.4z M78,82c-0.7,0.2-1.2,0.4-1.5,0.7c-0.3,0.3-0.5,0.6-0.5,1.1
			c0,0.3,0.1,0.5,0.2,0.7c0.2,0.2,0.4,0.3,0.6,0.3c0.4,0,0.7-0.1,0.8-0.4c0.2-0.3,0.3-0.7,0.3-1.3V82z"/>
		<path class="st2" d="M81.7,83.6l2.3,0c0,0.5,0.1,0.8,0.3,1.1c0.2,0.2,0.4,0.3,0.7,0.3c0.3,0,0.5-0.1,0.6-0.2
			c0.2-0.2,0.3-0.4,0.3-0.6c0-0.2-0.1-0.4-0.2-0.5c-0.1-0.1-0.4-0.3-0.8-0.5c-0.1,0-0.2-0.1-0.4-0.2c-0.9-0.4-1.6-0.8-2-1.2
			c-0.3-0.3-0.5-0.6-0.6-0.9c-0.1-0.3-0.2-0.7-0.2-1.1c0-0.9,0.3-1.5,0.9-2c0.6-0.5,1.4-0.8,2.4-0.8c1,0,1.8,0.2,2.4,0.7
			c0.6,0.5,0.8,1.2,0.8,2.1v0.2l-2.3,0c0-0.5-0.1-0.8-0.2-1c-0.1-0.2-0.3-0.3-0.6-0.3c-0.3,0-0.5,0.1-0.6,0.2
			c-0.2,0.1-0.2,0.3-0.2,0.6c0,0.4,0.4,0.8,1.2,1.1c0.1,0,0.2,0.1,0.3,0.1c1.1,0.5,1.8,1,2.2,1.4c0.4,0.5,0.5,1.1,0.5,1.8
			c0,0.9-0.3,1.7-0.9,2.2c-0.6,0.5-1.4,0.8-2.5,0.8c-1,0-1.8-0.3-2.4-0.8c-0.6-0.5-0.9-1.3-0.9-2.2V83.6z"/>
		<path class="st2" d="M89,83.6l2.3,0c0,0.5,0.1,0.8,0.3,1.1c0.2,0.2,0.4,0.3,0.7,0.3c0.3,0,0.5-0.1,0.6-0.2
			c0.2-0.2,0.3-0.4,0.3-0.6c0-0.2-0.1-0.4-0.2-0.5c-0.1-0.1-0.4-0.3-0.8-0.5c-0.1,0-0.2-0.1-0.4-0.2c-0.9-0.4-1.6-0.8-2-1.2
			c-0.3-0.3-0.5-0.6-0.6-0.9c-0.1-0.3-0.2-0.7-0.2-1.1c0-0.9,0.3-1.5,0.9-2c0.6-0.5,1.4-0.8,2.4-0.8c1,0,1.8,0.2,2.4,0.7
			c0.6,0.5,0.8,1.2,0.8,2.1v0.2l-2.3,0c0-0.5-0.1-0.8-0.2-1c-0.1-0.2-0.3-0.3-0.6-0.3c-0.3,0-0.5,0.1-0.6,0.2
			c-0.2,0.1-0.2,0.3-0.2,0.6c0,0.4,0.4,0.8,1.2,1.1c0.1,0,0.2,0.1,0.3,0.1c1.1,0.5,1.8,1,2.2,1.4c0.4,0.5,0.5,1.1,0.5,1.8
			c0,0.9-0.3,1.7-0.9,2.2c-0.6,0.5-1.4,0.8-2.5,0.8c-1,0-1.8-0.3-2.4-0.8c-0.6-0.5-0.9-1.3-0.9-2.2V83.6z"/>
		<path class="st2" d="M101.1,86.6V74.1h3.2c1.2,0,2.1,0.1,2.6,0.3c0.6,0.2,1,0.6,1.4,1c0.3,0.4,0.4,0.9,0.6,1.5
			c0.1,0.6,0.2,1.7,0.2,3.4c0,1.7-0.1,2.8-0.2,3.4c-0.1,0.6-0.3,1.1-0.6,1.5c-0.3,0.5-0.8,0.8-1.4,1c-0.6,0.2-1.4,0.3-2.6,0.3H101.1
			z M104,76.4v7.9c0.1,0,0.1,0,0.2,0c0.1,0,0.1,0,0.3,0c0.3,0,0.6,0,0.8-0.1c0.2-0.1,0.4-0.2,0.5-0.4c0.1-0.2,0.2-0.4,0.2-0.9
			s0.1-1.3,0.1-2.6v-0.6c0-1,0-1.7-0.1-2.1c0-0.4-0.1-0.6-0.2-0.8c-0.1-0.2-0.3-0.3-0.5-0.4c-0.2-0.1-0.5-0.1-0.8-0.1
			c-0.1,0-0.2,0-0.2,0C104.1,76.4,104.1,76.4,104,76.4z"/>
		<path class="st2" d="M110.3,76.2V74h2.6v2.3H110.3z M110.3,86.6v-9.4h2.6v9.4H110.3z"/>
		<path class="st2" d="M113.9,83.6l2.3,0c0,0.5,0.1,0.8,0.3,1.1c0.2,0.2,0.4,0.3,0.7,0.3c0.3,0,0.5-0.1,0.6-0.2
			c0.2-0.2,0.3-0.4,0.3-0.6c0-0.2-0.1-0.4-0.2-0.5c-0.1-0.1-0.4-0.3-0.8-0.5c-0.1,0-0.2-0.1-0.4-0.2c-0.9-0.4-1.6-0.8-2-1.2
			c-0.3-0.3-0.5-0.6-0.6-0.9c-0.1-0.3-0.2-0.7-0.2-1.1c0-0.9,0.3-1.5,0.9-2c0.6-0.5,1.4-0.8,2.4-0.8c1,0,1.8,0.2,2.4,0.7
			c0.6,0.5,0.8,1.2,0.8,2.1v0.2l-2.3,0c0-0.5-0.1-0.8-0.2-1c-0.1-0.2-0.3-0.3-0.6-0.3c-0.3,0-0.5,0.1-0.6,0.2
			c-0.2,0.1-0.2,0.3-0.2,0.6c0,0.4,0.4,0.8,1.2,1.1c0.1,0,0.2,0.1,0.3,0.1c1.1,0.5,1.8,1,2.2,1.4c0.4,0.5,0.5,1.1,0.5,1.8
			c0,0.9-0.3,1.7-0.9,2.2c-0.6,0.5-1.4,0.8-2.5,0.8c-1,0-1.8-0.3-2.4-0.8c-0.6-0.5-0.9-1.3-0.9-2.2V83.6z"/>
		<path class="st2" d="M121.5,76.2V74h2.6v2.3H121.5z M121.5,86.6v-9.4h2.6v9.4H121.5z"/>
		<path class="st2" d="M125.5,86.6v-9.4h2.5v1.1c0.3-0.4,0.6-0.8,1-1c0.4-0.2,0.8-0.3,1.3-0.3c0.7,0,1.3,0.2,1.6,0.7
			c0.3,0.5,0.5,1.3,0.5,2.3v6.6h-2.6v-5.8c0-0.8,0-1.2-0.1-1.4c-0.1-0.2-0.3-0.3-0.5-0.3c-0.3,0-0.5,0.1-0.7,0.4
			c-0.2,0.3-0.2,0.7-0.2,1.2v5.9H125.5z"/>
		<path class="st2" d="M134.3,86.6v-7.4h-1.1v-2h1.1c0-0.1,0-0.1,0-0.2c0-0.1,0-0.2,0-0.2c0-1,0.2-1.7,0.6-2.1
			c0.4-0.4,1.1-0.6,2.1-0.6c0.2,0,0.3,0,0.5,0c0.2,0,0.3,0,0.5,0v1.9c0,0-0.1,0-0.1,0c0,0-0.1,0-0.2,0c-0.3,0-0.5,0.1-0.6,0.2
			c-0.1,0.1-0.2,0.4-0.2,0.7c0,0.1,0,0.1,0,0.2c0,0,0,0.1,0,0.1h1.1v2h-1.1v7.4H134.3z"/>
		<path class="st2" d="M143.2,83.3h2.5v0.2c0,1.1-0.3,1.9-0.9,2.5c-0.6,0.6-1.4,0.8-2.6,0.8c-0.6,0-1.1-0.1-1.6-0.2
			c-0.5-0.2-0.8-0.4-1.1-0.7c-0.3-0.3-0.5-0.8-0.6-1.3c-0.1-0.5-0.2-1.4-0.2-2.6c0-1.3,0.1-2.3,0.2-2.8c0.1-0.5,0.3-1,0.7-1.3
			c0.3-0.3,0.7-0.6,1.1-0.7s1-0.2,1.6-0.2c0.6,0,1.2,0.1,1.6,0.3c0.4,0.2,0.8,0.4,1.1,0.8c0.2,0.3,0.4,0.6,0.5,1
			c0.1,0.4,0.2,1.1,0.2,2.1v1.1h-4.3c0,0,0,0.1,0,0.1c0,0.4,0,0.7,0,0.8c0,0.7,0.1,1.1,0.2,1.4c0.1,0.3,0.4,0.4,0.7,0.4
			c0.3,0,0.5-0.1,0.7-0.3c0.2-0.2,0.2-0.5,0.2-0.9C143.2,83.6,143.2,83.5,143.2,83.3C143.2,83.3,143.2,83.3,143.2,83.3z M141.5,80.6
			h1.8c0,0,0,0,0,0c0-0.2,0-0.4,0-0.5c0-0.5-0.1-0.8-0.2-1c-0.1-0.2-0.4-0.3-0.7-0.3c-0.3,0-0.5,0.1-0.7,0.3
			c-0.1,0.2-0.2,0.6-0.2,1.1c0,0.1,0,0.2,0,0.3C141.5,80.5,141.5,80.5,141.5,80.6z"/>
		<path class="st2" d="M150.9,82.9h2.6c0,0,0,0.1,0,0.2c0,0.1,0,0.1,0,0.2c0,1.2-0.3,2.1-0.8,2.7c-0.6,0.6-1.4,0.9-2.5,0.9
			c-1.3,0-2.2-0.4-2.7-1.1c-0.5-0.7-0.8-2-0.8-3.9c0-1.8,0.3-3.1,0.8-3.9c0.5-0.7,1.4-1.1,2.7-1.1c1.1,0,2,0.3,2.5,0.9
			c0.5,0.6,0.8,1.5,0.8,2.7v0.2H151v-0.3c0-0.6-0.1-1-0.2-1.2c-0.1-0.2-0.3-0.4-0.6-0.4c-0.3,0-0.6,0.2-0.7,0.5
			c-0.1,0.3-0.2,1.2-0.2,2.5c0,1.3,0.1,2.1,0.2,2.5c0.1,0.4,0.3,0.5,0.7,0.5c0.3,0,0.5-0.1,0.6-0.4c0.1-0.3,0.2-0.7,0.2-1.2
			c0,0,0-0.1,0-0.2S150.9,82.9,150.9,82.9z"/>
		<path class="st2" d="M159.1,86.5c-0.3,0.1-0.6,0.1-0.8,0.1c-0.2,0-0.4,0-0.6,0c-0.5,0-1-0.1-1.3-0.3s-0.6-0.4-0.8-0.7
			c-0.1-0.2-0.2-0.5-0.2-0.8c0-0.3-0.1-0.8-0.1-1.5v-1.2v-3.2h-1v-1.9h1v-2.6h2.6v2.6h1.3v1.9h-1.3v3.8c0,0.8,0.1,1.3,0.2,1.5
			c0.1,0.2,0.3,0.3,0.7,0.3c0.1,0,0.2,0,0.3,0c0,0,0.1,0,0.1,0V86.5z"/>
		<path class="st2" d="M160.2,76.2V74h2.6v2.3H160.2z M160.2,86.6v-9.4h2.6v9.4H160.2z"/>
		<path class="st2" d="M164,81.9c0-1.8,0.3-3.1,0.8-3.8c0.5-0.7,1.4-1.1,2.7-1.1c1.3,0,2.2,0.4,2.7,1.1c0.5,0.7,0.8,2,0.8,3.9
			c0,1.8-0.3,3.1-0.8,3.8c-0.5,0.7-1.4,1.1-2.7,1.1c-1.3,0-2.2-0.4-2.7-1.1C164.2,85,164,83.7,164,81.9z M166.6,81.9
			c0,1.3,0.1,2.1,0.2,2.5c0.1,0.3,0.3,0.5,0.7,0.5s0.5-0.2,0.7-0.5c0.1-0.3,0.2-1.2,0.2-2.5s-0.1-2.2-0.2-2.5
			c-0.1-0.3-0.3-0.5-0.7-0.5s-0.5,0.2-0.7,0.5C166.7,79.7,166.6,80.5,166.6,81.9z"/>
		<path class="st2" d="M172.1,86.6v-9.4h2.5v1.1c0.3-0.4,0.6-0.8,1-1c0.4-0.2,0.8-0.3,1.3-0.3c0.7,0,1.3,0.2,1.6,0.7
			c0.3,0.5,0.5,1.3,0.5,2.3v6.6h-2.6v-5.8c0-0.8,0-1.2-0.1-1.4c-0.1-0.2-0.3-0.3-0.5-0.3c-0.3,0-0.5,0.1-0.7,0.4
			c-0.2,0.3-0.2,0.7-0.2,1.2v5.9H172.1z"/>
		<path class="st2" d="M184.6,82.3h2.7v0.4c0,0.7,0.1,1.2,0.2,1.5c0.2,0.3,0.4,0.4,0.8,0.4c0.3,0,0.6-0.1,0.7-0.3
			c0.2-0.2,0.3-0.5,0.3-0.9c0-0.6-0.4-1.2-1.3-1.7c-0.1-0.1-0.2-0.2-0.3-0.2c0,0-0.1,0-0.1-0.1c-1.2-0.8-1.9-1.4-2.2-1.8
			c-0.2-0.3-0.4-0.6-0.5-1c-0.1-0.4-0.2-0.8-0.2-1.2c0-1.1,0.3-2,1-2.6c0.6-0.6,1.5-0.9,2.6-0.9c1.2,0,2.1,0.3,2.8,0.9
			c0.6,0.6,1,1.5,1,2.7c0,0,0,0.1,0,0.2c0,0.1,0,0.2,0,0.2h-2.6v-0.2c0-0.5-0.1-1-0.3-1.2c-0.2-0.3-0.4-0.4-0.7-0.4
			c-0.3,0-0.5,0.1-0.7,0.3c-0.2,0.2-0.3,0.5-0.3,0.8c0,0.5,0.5,1.1,1.4,1.7c0.2,0.1,0.3,0.2,0.4,0.3c0.1,0,0.2,0.1,0.3,0.2
			c1,0.6,1.7,1.2,2,1.6c0.2,0.3,0.3,0.6,0.4,1c0.1,0.4,0.1,0.8,0.1,1.2c0,1.3-0.3,2.2-1,2.9c-0.6,0.7-1.6,1-2.8,1
			c-1.3,0-2.2-0.3-2.9-1c-0.6-0.6-1-1.6-1-2.9c0-0.1,0-0.2,0-0.3C184.6,82.7,184.6,82.5,184.6,82.3z"/>
		<path class="st2" d="M192.8,77.2h2.6l0.9,6l0.9-6h2.6l-1.9,8.6c-0.4,1.7-0.8,2.7-1.2,3.2c-0.4,0.5-1.2,0.7-2.1,0.7
			c-0.1,0-0.3,0-0.5,0c-0.2,0-0.4,0-0.6-0.1v-2c0,0,0,0,0,0c0.2,0,0.3,0,0.4,0c0.3,0,0.5-0.1,0.7-0.2c0.1-0.1,0.2-0.3,0.2-0.5
			c0-0.1-0.1-0.5-0.2-1c0-0.2-0.1-0.3-0.1-0.4L192.8,77.2z"/>
		<path class="st2" d="M200.1,83.6l2.3,0c0,0.5,0.1,0.8,0.3,1.1c0.2,0.2,0.4,0.3,0.7,0.3c0.3,0,0.5-0.1,0.6-0.2
			c0.2-0.2,0.3-0.4,0.3-0.6c0-0.2-0.1-0.4-0.2-0.5c-0.1-0.1-0.4-0.3-0.8-0.5c-0.1,0-0.2-0.1-0.4-0.2c-0.9-0.4-1.6-0.8-2-1.2
			c-0.3-0.3-0.5-0.6-0.6-0.9c-0.1-0.3-0.2-0.7-0.2-1.1c0-0.9,0.3-1.5,0.9-2c0.6-0.5,1.4-0.8,2.4-0.8c1,0,1.8,0.2,2.4,0.7
			c0.6,0.5,0.8,1.2,0.8,2.1v0.2l-2.3,0c0-0.5-0.1-0.8-0.2-1c-0.1-0.2-0.3-0.3-0.6-0.3c-0.3,0-0.5,0.1-0.6,0.2
			c-0.2,0.1-0.2,0.3-0.2,0.6c0,0.4,0.4,0.8,1.2,1.1c0.1,0,0.2,0.1,0.3,0.1c1.1,0.5,1.8,1,2.2,1.4c0.4,0.5,0.5,1.1,0.5,1.8
			c0,0.9-0.3,1.7-0.9,2.2c-0.6,0.5-1.4,0.8-2.5,0.8c-1,0-1.8-0.3-2.4-0.8c-0.6-0.5-0.9-1.3-0.9-2.2V83.6z"/>
		<path class="st2" d="M212.1,86.5c-0.3,0.1-0.6,0.1-0.8,0.1c-0.2,0-0.4,0-0.6,0c-0.5,0-1-0.1-1.3-0.3s-0.6-0.4-0.8-0.7
			c-0.1-0.2-0.2-0.5-0.2-0.8c0-0.3-0.1-0.8-0.1-1.5v-1.2v-3.2h-1v-1.9h1v-2.6h2.6v2.6h1.3v1.9h-1.3v3.8c0,0.8,0.1,1.3,0.2,1.5
			c0.1,0.2,0.3,0.3,0.7,0.3c0.1,0,0.2,0,0.3,0c0,0,0.1,0,0.1,0V86.5z"/>
		<path class="st2" d="M217.3,83.3h2.5v0.2c0,1.1-0.3,1.9-0.9,2.5c-0.6,0.6-1.4,0.8-2.6,0.8c-0.6,0-1.1-0.1-1.6-0.2
			c-0.5-0.2-0.8-0.4-1.1-0.7c-0.3-0.3-0.5-0.8-0.6-1.3c-0.1-0.5-0.2-1.4-0.2-2.6c0-1.3,0.1-2.3,0.2-2.8c0.1-0.5,0.3-1,0.7-1.3
			c0.3-0.3,0.7-0.6,1.1-0.7c0.5-0.2,1-0.2,1.6-0.2c0.6,0,1.2,0.1,1.6,0.3c0.4,0.2,0.8,0.4,1.1,0.8c0.2,0.3,0.4,0.6,0.5,1
			c0.1,0.4,0.2,1.1,0.2,2.1v1.1h-4.3c0,0,0,0.1,0,0.1c0,0.4,0,0.7,0,0.8c0,0.7,0.1,1.1,0.2,1.4c0.1,0.3,0.4,0.4,0.7,0.4
			c0.3,0,0.5-0.1,0.7-0.3c0.2-0.2,0.2-0.5,0.2-0.9C217.3,83.6,217.3,83.5,217.3,83.3C217.3,83.3,217.3,83.3,217.3,83.3z M215.6,80.6
			h1.8c0,0,0,0,0,0c0-0.2,0-0.4,0-0.5c0-0.5-0.1-0.8-0.2-1c-0.1-0.2-0.4-0.3-0.7-0.3c-0.3,0-0.5,0.1-0.7,0.3
			c-0.1,0.2-0.2,0.6-0.2,1.1c0,0.1,0,0.2,0,0.3C215.6,80.5,215.6,80.5,215.6,80.6z"/>
		<path class="st2" d="M221,86.6v-9.4h2.3v1.1c0.3-0.4,0.6-0.8,0.9-1c0.3-0.2,0.8-0.3,1.2-0.3c0.4,0,0.8,0.1,1.1,0.3
			c0.3,0.2,0.6,0.5,0.7,1c0.3-0.4,0.6-0.8,1-1c0.4-0.2,0.8-0.3,1.2-0.3c0.7,0,1.2,0.2,1.5,0.7c0.3,0.5,0.5,1.3,0.5,2.3v6.6H229v-6
			c0-0.7,0-1.1-0.1-1.3c-0.1-0.2-0.3-0.3-0.5-0.3c-0.3,0-0.5,0.1-0.7,0.4c-0.2,0.3-0.2,0.7-0.2,1.2v5.9h-2.5v-6c0-0.7,0-1.1-0.1-1.3
			c-0.1-0.2-0.3-0.3-0.5-0.3c-0.3,0-0.5,0.1-0.7,0.4c-0.2,0.3-0.2,0.7-0.2,1.2v5.9H221z"/>
	</g>
	<g>
		<path class="st2" d="M199.1,88.6h1.2c0.7,0,1,0.5,1,1.1c0,0.6-0.3,1.1-1,1.1h-0.6v1.3h-0.6V88.6z M200.2,89.1h-0.5v1.1h0.5
			c0.3,0,0.5-0.2,0.5-0.6C200.7,89.4,200.5,89.1,200.2,89.1z"/>
		<path class="st2" d="M203,91.4h-1.2l-0.2,0.7h-0.6l1-3.5h0.7l1,3.5h-0.6L203,91.4z M202,90.9h1l-0.5-1.8L202,90.9z"/>
		<path class="st2" d="M204.3,89.1h-0.8v-0.5h2.2v0.5h-0.8v3h-0.6V89.1z"/>
		<path class="st2" d="M206,88.6h1.9v0.5h-1.3v0.9h1.3v0.5h-1.3v1h1.3v0.5H206V88.6z"/>
		<path class="st2" d="M208.9,89.7v2.4h-0.6v-3.5h0.6l1.2,2.3v-2.3h0.6v3.5h-0.5L208.9,89.7z"/>
		<path class="st2" d="M211.8,89.1H211v-0.5h2.2v0.5h-0.8v3h-0.6V89.1z"/>
		<path class="st2" d="M214.5,88.6h1.2c0.7,0,1,0.5,1,1.1c0,0.6-0.3,1.1-1,1.1H215v1.3h-0.6V88.6z M215.6,89.1H215v1.1h0.5
			c0.3,0,0.5-0.2,0.5-0.6C216.1,89.4,215.9,89.1,215.6,89.1z"/>
		<path class="st2" d="M216.9,88.6h1.9v0.5h-1.3v0.9h1.3v0.5h-1.3v1h1.3v0.5h-1.9V88.6z"/>
		<path class="st2" d="M219.8,89.7v2.4h-0.6v-3.5h0.6l1.2,2.3v-2.3h0.6v3.5h-0.5L219.8,89.7z"/>
		<path class="st2" d="M222.2,88.6h1c0.9,0,1.5,0.7,1.5,1.7s-0.5,1.7-1.5,1.7h-1V88.6z M223.2,91.6c0.6,0,0.9-0.5,0.9-1.2
			c0-0.7-0.3-1.2-0.9-1.2h-0.5v2.4H223.2z"/>
		<path class="st2" d="M225.1,88.6h0.6v3.5h-0.6V88.6z"/>
		<path class="st2" d="M226.8,89.7v2.4h-0.6v-3.5h0.6l1.2,2.3v-2.3h0.6v3.5h-0.5L226.8,89.7z"/>
		<path class="st2" d="M230.4,88.6c0.6,0,0.9,0.3,1.1,0.7l-0.5,0.2c-0.1-0.3-0.3-0.4-0.6-0.4c-0.5,0-0.8,0.5-0.8,1.3
			c0,0.8,0.3,1.3,0.8,1.3c0.3,0,0.5-0.1,0.6-0.2v-0.6h-0.7v-0.5h1.3v1.4c-0.3,0.3-0.6,0.5-1.1,0.5c-0.8,0-1.4-0.7-1.4-1.8
			C229,89.3,229.6,88.6,230.4,88.6z"/>
	</g>
</g>
</svg>
